<svg version="1.1" xmlns="http://www.w3.org/2000/svg" style="display: block;" viewBox="0 0 4000 4000" width="4000" height="4000" preserveAspectRatio="none">
<defs>
	<linearGradient id="Gradient1" gradientUnits="userSpaceOnUse" x1="1959.6" y1="3291.25" x2="1942.72" y2="3278.41">
		<stop class="stop0" offset="0" stop-opacity="1" stop-color="rgb(30,59,140)"/>
		<stop class="stop1" offset="1" stop-opacity="1" stop-color="rgb(30,59,140)"/>
	</linearGradient>
	<linearGradient id="Gradient2" gradientUnits="userSpaceOnUse" x1="2116.72" y1="3213.52" x2="1984.83" y2="3173.17">
		<stop class="stop0" offset="0" stop-opacity="1" stop-color="rgb(30,59,140)"/>
		<stop class="stop1" offset="1" stop-opacity="1" stop-color="rgb(30,59,140)"/>
	</linearGradient>
	<linearGradient id="Gradient3" gradientUnits="userSpaceOnUse" x1="2035.79" y1="610.614" x2="1981.71" y2="621.434">
		<stop class="stop0" offset="0" stop-opacity="1" stop-color="rgb(30,59,140)"/>
		<stop class="stop1" offset="1" stop-opacity="1" stop-color="rgb(30,59,140)"/>
	</linearGradient>
	<linearGradient id="Gradient4" gradientUnits="userSpaceOnUse" x1="2061.08" y1="602.29" x2="2032.5" y2="621.819">
		<stop class="stop0" offset="0" stop-opacity="1" stop-color="rgb(30,59,139)"/>
		<stop class="stop1" offset="1" stop-opacity="1" stop-color="rgb(30,59,140)"/>
	</linearGradient>
	<linearGradient id="Gradient5" gradientUnits="userSpaceOnUse" x1="2001.9" y1="535.896" x2="1850.95" y2="518.836">
		<stop class="stop0" offset="0" stop-opacity="1" stop-color="rgb(30,59,140)"/>
		<stop class="stop1" offset="1" stop-opacity="1" stop-color="rgb(30,59,140)"/>
	</linearGradient>
	<linearGradient id="Gradient6" gradientUnits="userSpaceOnUse" x1="2124.36" y1="537.981" x2="1971.55" y2="453.316">
		<stop class="stop0" offset="0" stop-opacity="1" stop-color="rgb(30,59,139)"/>
		<stop class="stop1" offset="1" stop-opacity="1" stop-color="rgb(31,59,140)"/>
	</linearGradient>
	<linearGradient id="Gradient7" gradientUnits="userSpaceOnUse" x1="1325.88" y1="772.674" x2="1045.23" y2="838.757">
		<stop class="stop0" offset="0" stop-opacity="1" stop-color="rgb(30,59,140)"/>
		<stop class="stop1" offset="1" stop-opacity="1" stop-color="rgb(31,59,140)"/>
	</linearGradient>
	<linearGradient id="Gradient8" gradientUnits="userSpaceOnUse" x1="343.162" y1="2465.87" x2="554.665" y2="2696.63">
		<stop class="stop0" offset="0" stop-opacity="1" stop-color="rgb(30,59,140)"/>
		<stop class="stop1" offset="1" stop-opacity="1" stop-color="rgb(30,59,140)"/>
	</linearGradient>
	<linearGradient id="Gradient9" gradientUnits="userSpaceOnUse" x1="1553.2" y1="2157.84" x2="403.024" y2="2292.06">
		<stop class="stop0" offset="0" stop-opacity="1" stop-color="rgb(19,38,90)"/>
		<stop class="stop1" offset="1" stop-opacity="1" stop-color="rgb(23,45,107)"/>
	</linearGradient>
	<linearGradient id="Gradient10" gradientUnits="userSpaceOnUse" x1="2670.75" y1="773.034" x2="2952.76" y2="838.233">
		<stop class="stop0" offset="0" stop-opacity="1" stop-color="rgb(30,59,140)"/>
		<stop class="stop1" offset="1" stop-opacity="1" stop-color="rgb(31,59,140)"/>
	</linearGradient>
	<linearGradient id="Gradient11" gradientUnits="userSpaceOnUse" x1="3653.86" y1="2465.02" x2="3444.24" y2="2697.3">
		<stop class="stop0" offset="0" stop-opacity="1" stop-color="rgb(30,59,140)"/>
		<stop class="stop1" offset="1" stop-opacity="1" stop-color="rgb(30,59,140)"/>
	</linearGradient>
	<linearGradient id="Gradient12" gradientUnits="userSpaceOnUse" x1="2445.59" y1="2157.87" x2="3594.88" y2="2292.62">
		<stop class="stop0" offset="0" stop-opacity="1" stop-color="rgb(19,38,90)"/>
		<stop class="stop1" offset="1" stop-opacity="1" stop-color="rgb(23,45,107)"/>
	</linearGradient>
</defs>

<path transform="translate(0,0)" fill="url(#Gradient12)" d="M 2673.57 730.505 C 2811.48 700.276 2911.29 756.551 2952.93 892.099 C 3041.83 966.472 3106.95 1029.57 3180.81 1120.05 C 3182.54 1105.3 3183.88 1095.32 3183.56 1080.56 C 3082.44 999.815 3040.4 881.275 3097.84 761.002 C 3106.1 766.445 3114.14 772.199 3121.96 778.254 C 3219.26 852.094 3276.09 971.12 3193.52 1078.81 C 3192.73 1096.82 3192.06 1111.61 3188.13 1129.31 C 3249.68 1206.24 3303.64 1288.96 3349.25 1376.29 C 3367.46 1411.12 3381.55 1444.46 3398.52 1478.48 C 3404.2 1462.88 3406.44 1455.21 3410.05 1439 C 3337.68 1332.21 3327.25 1209.57 3416.84 1109.29 C 3435.94 1132.87 3450.61 1152.71 3465.22 1179.64 C 3514.2 1269.91 3509.88 1381.45 3418.94 1442.76 C 3414.56 1460.9 3411.2 1473.63 3403.14 1490.61 C 3452.34 1608.66 3495.91 1755.75 3509.2 1883.65 C 3517.48 1870.84 3523.96 1860.39 3529.76 1846.14 C 3489.13 1724.88 3515 1602.72 3627.5 1532.27 C 3633.85 1547.12 3639.28 1560.57 3644.51 1575.84 C 3680.17 1679.96 3661.15 1801.51 3550.79 1848.48 C 3546.46 1850.31 3542.06 1851.98 3537.61 1853.47 C 3529.79 1867.8 3521.35 1883.53 3511.13 1896.12 C 3525.23 2031.73 3526.27 2166.38 3503.5 2301.3 C 3514.3 2291.54 3523.28 2283.63 3532.96 2272.8 C 3527.34 2142.73 3584.79 2035.47 3713.36 1996.57 C 3715.02 2010.12 3716.41 2023.03 3717.4 2036.64 C 3725.42 2146.87 3674.58 2264.28 3553.89 2279.42 C 3548.92 2280.03 3543.93 2280.44 3538.92 2280.67 C 3526.81 2292.73 3516.2 2303.74 3501.78 2313.14 C 3480.04 2447.48 3439.97 2578.21 3382.69 2701.66 C 3394.92 2696.6 3406.29 2692.29 3417.68 2685.51 C 3448.05 2558.87 3531.92 2467.51 3667.98 2466.87 C 3666 2478.87 3664.05 2490.89 3661.53 2502.8 C 3637.14 2618.09 3557.03 2715.37 3429.19 2693.45 C 3427.79 2693.21 3426.39 2692.95 3425 2692.66 C 3408.37 2701.22 3396.02 2707.41 3377.75 2712.23 C 3319.55 2835.44 3244.8 2950.14 3155.58 3053.13 C 3168.71 3051.26 3182 3049.8 3194.73 3046.15 C 3258.19 2932.08 3364.64 2871.21 3494.49 2906.28 C 3480.34 2937.66 3467.13 2962.08 3446.07 2989.41 C 3385.98 3067.39 3287.87 3106.77 3197.22 3055.23 C 3179.16 3059.63 3166.6 3061.82 3147.77 3062.09 C 3057.86 3164.36 2954.5 3253.97 2840.52 3328.47 C 2853.03 3330.81 2866.15 3333.8 2878.82 3334.03 C 2919.91 3337.17 2956.12 3332.26 2996.59 3327.06 L 3001.69 3331.09 C 2961.92 3340.69 2922.75 3346.21 2881.72 3344.1 C 2863.49 3342.31 2848.7 3340.49 2831.13 3334.75 C 2706.69 3412.79 2606.65 3459.51 2467.08 3505.54 C 2478.67 3511.99 2486.6 3516.23 2498.74 3521.53 C 2611.11 3458.48 2737.61 3463.35 2827.01 3562 C 2762.26 3603.67 2691.88 3634.9 2612.94 3618.32 C 2567.9 3609.13 2528.48 3582.11 2503.66 3543.41 C 2500.84 3539.12 2498.15 3534.73 2495.62 3530.26 C 2479.89 3523.72 2469.37 3517.91 2455.17 3508.79 C 2428.31 3517.36 2299 3553.32 2279.32 3547.55 L 2278.89 3544.75 C 2285.67 3537.61 2332.39 3530.18 2345.05 3527.33 C 2381.43 3519.21 2417.47 3509.68 2453.11 3498.75 C 2460.09 3483.43 2466.02 3473.91 2475.18 3459.9 C 2455.63 3318.68 2566.62 3245.78 2693.1 3229.18 C 2699.72 3228.27 2706.36 3227.58 2713.03 3227.08 C 2701.04 3363.12 2614.33 3441.33 2482.56 3465.72 C 2475.81 3475.43 2470.61 3485.06 2464.8 3495.32 C 2601.97 3451.18 2706 3401.1 2827.28 3324.95 C 2830.37 3308.56 2832.43 3298.51 2837.37 3282.7 C 2835.05 3278.05 2832.92 3273.32 2830.98 3268.51 C 2790.55 3167.01 2848.89 3072.81 2937.2 3021.83 C 2958.76 3009.39 2977.68 3001.03 3000.78 2991.88 C 3028.48 3122.6 2963.81 3226.56 2846.5 3283.66 C 2843.08 3295.22 2840.71 3305.88 2838.06 3317.62 C 2948.05 3247.82 3057.45 3148.99 3143.09 3051.51 C 3140.21 3035.29 3139.49 3025.06 3138.53 3008.49 C 3048.76 2900.91 3100.76 2780.72 3198.08 2699.95 C 3204.11 2694.85 3210.31 2689.94 3216.65 2685.24 C 3280.27 2802.86 3244.99 2921.97 3148.39 3008.83 C 3148.19 3021.31 3149.44 3029.92 3150.98 3042.28 C 3239.36 2943.1 3312.86 2822.91 3370.44 2703.62 C 3363.98 2689.56 3360.37 2678.69 3355.42 2663.96 C 3351.81 2661.88 3348.31 2659.63 3344.91 2657.22 C 3306.36 2629.96 3279.77 2590.36 3272.66 2543.54 C 3260.15 2461.12 3293.64 2395.21 3339.62 2330.83 C 3432.76 2425.76 3432.72 2550.34 3363.75 2659.9 C 3367.43 2670.93 3371.59 2681.81 3375.64 2692.72 C 3436.38 2557.83 3466.62 2452.27 3492.54 2308.03 C 3480.22 2295.65 3472.43 2285.06 3461.94 2271.26 C 3319.07 2217.36 3314.44 2083.23 3360.32 1956.57 C 3479.14 2022.48 3509.29 2145.1 3473.06 2270.38 C 3479.36 2279.58 3486.78 2287.87 3494.03 2296.35 C 3515.53 2156.33 3515.68 2034.21 3500.55 1894.38 C 3486.34 1886.55 3476.09 1879.1 3462.8 1869.65 C 3460.31 1869.66 3457.83 1869.6 3455.35 1869.48 C 3407.56 1867.39 3362.92 1849.03 3331.3 1812.75 C 3275.46 1748.67 3269.44 1675.28 3273.95 1595.21 C 3404.77 1626.69 3467.97 1731.99 3468.98 1862.08 C 3478.84 1870.41 3488.18 1876 3499.05 1882.89 C 3481.36 1747.34 3445.04 1614.88 3391.15 1489.25 C 3378.04 1485.57 3363.43 1479.56 3350.55 1474.62 C 3304.69 1488.24 3253.78 1481.73 3213.11 1456.66 C 3142.38 1413.06 3112.42 1339.7 3096.14 1261.98 C 3231.32 1257.67 3321.31 1339.94 3357.4 1466.69 C 3365.18 1470.64 3377.96 1475.08 3386.44 1478.32 C 3330.26 1349.52 3264.19 1244.02 3177.95 1134.19 C 3163.03 1133.26 3152.04 1131.26 3137.25 1128.68 C 3132.87 1131.52 3128.36 1134.17 3123.75 1136.62 C 2997.73 1202.53 2887.54 1104.47 2831.85 996.108 C 2959.93 952.882 3067.87 1010.51 3138.4 1119.18 C 3148.83 1121.7 3159 1122.84 3169.62 1124.29 C 3110.61 1048.1 3021.32 962.946 2947.11 902.468 C 2832.82 906.09 2719.61 835.259 2673.57 730.505 z"/>
<path transform="translate(0,0)" fill="rgb(30,59,140)" d="M 3360.32 1956.57 C 3479.14 2022.48 3509.29 2145.1 3473.06 2270.38 C 3445.5 2229.58 3428.23 2190.64 3409.03 2145.87 C 3406.59 2140.19 3403.73 2129.06 3401.04 2125.62 C 3401.12 2132.51 3404.6 2135.81 3406.52 2143.28 C 3418.45 2189.73 3436.57 2230.25 3461.94 2271.26 C 3319.07 2217.36 3314.44 2083.23 3360.32 1956.57 z"/>
<path transform="translate(0,0)" fill="rgb(30,59,140)" d="M 3339.62 2330.83 C 3432.76 2425.76 3432.72 2550.34 3363.75 2659.9 C 3352.78 2595.99 3348.51 2578.96 3344.81 2511.7 C 3339.41 2550.07 3342.69 2627.17 3355.42 2663.96 C 3351.81 2661.88 3348.31 2659.63 3344.91 2657.22 C 3306.36 2629.96 3279.77 2590.36 3272.66 2543.54 C 3260.15 2461.12 3293.64 2395.21 3339.62 2330.83 z"/>
<path transform="translate(0,0)" fill="rgb(30,59,140)" d="M 2475.18 3459.9 C 2455.63 3318.68 2566.62 3245.78 2693.1 3229.18 C 2699.72 3228.27 2706.36 3227.58 2713.03 3227.08 C 2701.04 3363.12 2614.33 3441.33 2482.56 3465.72 C 2509.71 3427.57 2541.75 3396.1 2576.73 3365.49 L 2575.24 3361.96 C 2538.67 3389.62 2501.56 3422.08 2475.18 3459.9 z"/>
<path transform="translate(0,0)" fill="rgb(24,47,113)" d="M 2575.24 3361.96 C 2581.41 3356.7 2587.19 3351.21 2594.39 3347.51 L 2595.94 3348.34 C 2589.57 3356.34 2584.79 3359.35 2576.73 3365.49 L 2575.24 3361.96 z"/>
<path transform="translate(0,0)" fill="rgb(30,59,140)" d="M 3273.95 1595.21 C 3404.77 1626.69 3467.97 1731.99 3468.98 1862.08 C 3442.97 1840.71 3418.89 1817.11 3397.01 1791.53 C 3393.71 1787.73 3373.3 1761.12 3372.7 1760.75 C 3375.84 1785.62 3443 1853.38 3462.8 1869.65 C 3460.31 1869.66 3457.83 1869.6 3455.35 1869.48 C 3407.56 1867.39 3362.92 1849.03 3331.3 1812.75 C 3275.46 1748.67 3269.44 1675.28 3273.95 1595.21 z"/>
<path transform="translate(0,0)" fill="rgb(30,59,140)" d="M 2498.74 3521.53 C 2611.11 3458.48 2737.61 3463.35 2827.01 3562 C 2762.26 3603.67 2691.88 3634.9 2612.94 3618.32 C 2567.9 3609.13 2528.48 3582.11 2503.66 3543.41 C 2500.84 3539.12 2498.15 3534.73 2495.62 3530.26 C 2537.99 3546.32 2574.01 3551.7 2618.91 3555.85 C 2623.89 3554.74 2624.08 3554.09 2628.78 3551.5 C 2588.12 3548.36 2536.81 3534.74 2498.74 3521.53 z"/>
<path transform="translate(0,0)" fill="rgb(24,47,113)" d="M 2628.78 3551.5 C 2640.61 3552.68 2666.03 3554.53 2676.58 3557.14 C 2664.93 3557.39 2629.14 3558.1 2618.91 3555.85 C 2623.89 3554.74 2624.08 3554.09 2628.78 3551.5 z"/>
<path transform="translate(0,0)" fill="rgb(30,59,140)" d="M 3138.53 3008.49 C 3048.76 2900.91 3100.76 2780.72 3198.08 2699.95 C 3204.11 2694.85 3210.31 2689.94 3216.65 2685.24 C 3280.27 2802.86 3244.99 2921.97 3148.39 3008.83 C 3149.85 2943.23 3157.79 2916.06 3169.08 2854.04 C 3152.27 2887.41 3138.75 2970.6 3138.53 3008.49 z"/>
<path transform="translate(0,0)" fill="rgb(30,59,140)" d="M 2837.37 3282.7 C 2835.05 3278.05 2832.92 3273.32 2830.98 3268.51 C 2790.55 3167.01 2848.89 3072.81 2937.2 3021.83 C 2958.76 3009.39 2977.68 3001.03 3000.78 2991.88 C 3028.48 3122.6 2963.81 3226.56 2846.5 3283.66 C 2856.48 3256.78 2866.56 3232.77 2880.13 3207.35 C 2884.23 3199.66 2915.05 3146.59 2914.58 3144.37 C 2893.44 3164.16 2843.7 3253.09 2837.37 3282.7 z"/>
<path transform="translate(0,0)" fill="rgb(30,59,140)" d="M 3096.14 1261.98 C 3231.32 1257.67 3321.31 1339.94 3357.4 1466.69 C 3329.85 1453.65 3303.52 1438.18 3278.71 1420.47 C 3268.53 1413.33 3229.95 1381.66 3223.53 1379.16 C 3231.98 1400.6 3328.45 1462.96 3350.55 1474.62 C 3304.69 1488.24 3253.78 1481.73 3213.11 1456.66 C 3142.38 1413.06 3112.42 1339.7 3096.14 1261.98 z"/>
<path transform="translate(0,0)" fill="rgb(30,59,140)" d="M 3532.96 2272.8 C 3527.34 2142.73 3584.79 2035.47 3713.36 1996.57 C 3715.02 2010.12 3716.41 2023.03 3717.4 2036.64 C 3725.42 2146.87 3674.58 2264.28 3553.89 2279.42 C 3548.92 2280.03 3543.93 2280.44 3538.92 2280.67 C 3571.82 2240.75 3602.81 2186.15 3618.06 2136.58 C 3584.23 2193.77 3579.93 2215.09 3532.96 2272.8 z"/>
<path transform="translate(0,0)" fill="rgb(30,59,140)" d="M 3416.84 1109.29 C 3435.94 1132.87 3450.61 1152.71 3465.22 1179.64 C 3514.2 1269.91 3509.88 1381.45 3418.94 1442.76 C 3428.99 1393.63 3425 1345.82 3418.92 1296.74 L 3415.19 1301.75 C 3418.15 1351.36 3417.86 1389.71 3410.05 1439 C 3337.68 1332.21 3327.25 1209.57 3416.84 1109.29 z"/>
<path transform="translate(0,0)" fill="rgb(24,47,113)" d="M 3415.19 1301.75 C 3414.13 1295.61 3411.65 1274.69 3414.79 1270.16 L 3412.88 1274.05 L 3413.21 1269.24 L 3414.78 1270.31 L 3413.57 1268.46 L 3412.91 1271.82 L 3415.45 1272.98 L 3418.92 1296.74 L 3415.19 1301.75 z"/>
<path transform="translate(0,0)" fill="rgb(30,59,140)" d="M 2831.85 996.108 C 2959.93 952.882 3067.87 1010.51 3138.4 1119.18 C 3101.44 1109.53 3065.47 1096.38 3031 1079.9 C 3014.79 1072.26 3000.76 1062.08 2984.94 1056.72 C 2986.35 1061.48 2992.75 1064.42 2997.46 1067.02 C 3042.97 1092.07 3085.36 1117.48 3137.25 1128.68 C 3132.87 1131.52 3128.36 1134.17 3123.75 1136.62 C 2997.73 1202.53 2887.54 1104.47 2831.85 996.108 z"/>
<path transform="translate(0,0)" fill="rgb(30,59,140)" d="M 3529.76 1846.14 C 3489.13 1724.88 3515 1602.72 3627.5 1532.27 C 3633.85 1547.12 3639.28 1560.57 3644.51 1575.84 C 3680.17 1679.96 3661.15 1801.51 3550.79 1848.48 C 3546.46 1850.31 3542.06 1851.98 3537.61 1853.47 C 3558.03 1804.82 3571.22 1743.32 3570.31 1690.49 C 3561.25 1747.21 3551.99 1792.45 3529.76 1846.14 z"/>
<path transform="translate(0,0)" fill="rgb(30,59,140)" d="M 3097.84 761.002 C 3106.1 766.445 3114.14 772.199 3121.96 778.254 C 3219.26 852.094 3276.09 971.12 3193.52 1078.81 C 3191.36 1035.63 3176.97 962.068 3157.23 922.006 C 3156.42 928.645 3173 992.876 3175.46 1006.15 C 3180.12 1030.7 3182.83 1055.58 3183.56 1080.56 C 3082.44 999.815 3040.4 881.275 3097.84 761.002 z"/>
<path transform="translate(0,0)" fill="url(#Gradient11)" d="M 3417.68 2685.51 C 3448.05 2558.87 3531.92 2467.51 3667.98 2466.87 C 3666 2478.87 3664.05 2490.89 3661.53 2502.8 C 3637.14 2618.09 3557.03 2715.37 3429.19 2693.45 C 3427.79 2693.21 3426.39 2692.95 3425 2692.66 C 3464.57 2674.58 3521.61 2614.2 3550.29 2579.51 C 3537.14 2589.06 3518.89 2607.97 3506.08 2619.69 C 3476.21 2647.02 3452.17 2665.08 3417.68 2685.51 z"/>
<path transform="translate(0,0)" fill="rgb(30,59,140)" d="M 3194.73 3046.15 C 3258.19 2932.08 3364.64 2871.21 3494.49 2906.28 C 3480.34 2937.66 3467.13 2962.08 3446.07 2989.41 C 3385.98 3067.39 3287.87 3106.77 3197.22 3055.23 C 3222.47 3053.03 3331.12 2999.2 3347.7 2978.27 L 3346.64 2977.28 C 3304.56 3004.75 3242.46 3032.67 3194.73 3046.15 z"/>
<path transform="translate(0,0)" fill="url(#Gradient10)" d="M 2673.57 730.505 C 2811.48 700.276 2911.29 756.551 2952.93 892.099 C 2923.53 870.187 2828.73 805.006 2797.25 795.88 C 2809.67 805.429 2831.8 818.896 2845.72 828.542 C 2880.14 852.318 2913.95 876.968 2947.11 902.468 C 2832.82 906.09 2719.61 835.259 2673.57 730.505 z"/>
<path transform="translate(0,0)" fill="url(#Gradient9)" d="M 1047.11 892.074 C 1088.61 755.975 1188.55 700.844 1326.48 730.469 C 1280.39 835.142 1167.22 906.175 1052.92 902.453 C 984.569 958.046 883.62 1053.12 830.435 1124.27 C 841.056 1122.83 851.183 1121.72 861.606 1119.16 C 932.214 1010.35 1039.98 953.024 1168.15 996.093 C 1133.51 1063.51 1084.63 1125.18 1009.55 1148.84 C 965.564 1162.94 917.747 1158.68 876.954 1137.01 C 872.186 1134.47 867.427 1131.54 862.835 1128.68 C 848.098 1131.25 836.826 1133.26 821.955 1134.28 C 735.109 1245.13 670.466 1348.42 613.503 1478.32 C 622.144 1475.02 634.564 1470.71 642.573 1466.74 C 678.583 1339.75 768.657 1257.94 903.81 1261.94 C 895.754 1301.32 886.594 1333.6 867.435 1369.21 C 823.649 1450.6 742.355 1500.66 649.468 1474.63 C 636.556 1479.57 621.963 1485.57 608.82 1489.27 C 554.946 1614.87 518.653 1747.31 500.969 1882.84 C 511.881 1875.95 521.153 1870.43 531.026 1862.07 C 531.981 1731.76 595.268 1626.91 726.061 1595.16 C 730.405 1675.44 724.728 1748.35 668.703 1812.74 C 637.131 1849.02 592.409 1867.38 544.651 1869.48 C 542.167 1869.61 539.68 1869.66 537.193 1869.66 C 523.868 1879.13 513.729 1886.53 499.459 1894.37 C 485.279 2024.09 483.784 2167.28 505.997 2296.34 C 513.283 2287.82 520.685 2279.55 526.964 2270.25 C 490.034 2145.13 521.506 2022.47 639.677 1956.55 C 684.675 2080.79 681.218 2219.87 538.206 2271.07 C 527.675 2284.92 519.793 2295.64 507.447 2308.07 C 533.547 2453.03 563.495 2557.12 624.328 2692.71 C 628.407 2681.8 632.613 2670.92 636.211 2659.84 C 637.437 2650.14 640.395 2639.57 642.336 2629.86 C 647.919 2601.89 651.328 2574.73 652.625 2546.2 L 655.611 2544.4 L 658.208 2546.29 C 657.296 2578.82 655.152 2633.8 644.611 2663.94 C 639.691 2678.46 635.958 2689.81 629.516 2703.66 C 687.351 2822.67 760.508 2943.4 849.06 3042.31 C 850.57 3029.96 851.803 3021.32 851.573 3008.86 C 756.564 2921.24 718.155 2803.16 783.407 2685.16 C 794.221 2693.64 804.435 2701.82 814.747 2710.88 C 904.095 2789.37 946.401 2910.99 861.456 3008.53 C 860.526 3025.03 859.751 3035.32 856.904 3051.51 C 943.522 3150.14 1051.03 3246.76 1161.96 3317.67 C 1159.29 3305.84 1156.98 3295.17 1153.35 3283.58 C 1036 3226.55 971.619 3122.49 999.217 2991.89 C 1015.73 2998.43 1030.14 3004.63 1046.01 3012.57 C 1142.23 3060.69 1213.09 3160.64 1168.56 3269.63 C 1166.73 3274.04 1164.77 3278.39 1162.68 3282.68 C 1167.58 3298.5 1169.63 3308.57 1172.68 3324.96 C 1293.22 3400.42 1398.54 3451.77 1535.15 3495.27 C 1529.38 3485.07 1524.17 3475.44 1517.51 3465.78 C 1385.17 3440.65 1299.27 3363.82 1286.96 3227.05 C 1293.28 3227.54 1299.58 3228.21 1305.86 3229.05 C 1433.34 3245.46 1543.79 3317.98 1524.86 3459.98 C 1533.95 3473.8 1540 3483.55 1546.87 3498.74 C 1586.18 3510.78 1625.98 3521.15 1666.17 3529.81 C 1676.65 3532.1 1715.63 3537.9 1720.54 3544.29 L 1719.87 3547.68 C 1703.14 3553.66 1566.8 3515.89 1544.82 3508.8 C 1530.85 3517.75 1519.91 3523.94 1504.39 3530.21 C 1452.76 3623.24 1349.74 3641.22 1255.45 3605.59 C 1224.47 3593.89 1200.6 3579.9 1173.08 3561.96 C 1261.74 3463.55 1389.6 3458.37 1501.19 3521.54 C 1513.44 3516.17 1521.18 3512.12 1532.87 3505.54 C 1393.54 3459.44 1293.25 3412.93 1168.9 3334.74 C 1151.2 3340.49 1136.57 3342.3 1118.2 3344.12 C 1076.13 3346.1 1039.14 3340.71 998.385 3331.16 L 1003.37 3327.06 C 1043.81 3332.25 1080.17 3337.19 1121.23 3334 C 1134.26 3333.77 1146.66 3330.91 1159.47 3328.46 C 1045.5 3253.96 942.142 3164.35 852.229 3062.1 C 833.715 3061.82 820.502 3059.63 802.776 3055.19 C 798.988 3057.47 795.083 3059.55 791.076 3061.43 C 721.748 3093.79 650.765 3078.3 593.303 3030.27 C 552.021 2995.76 527.396 2954.43 505.428 2906.24 C 636.007 2870.62 741.048 2932.65 805.425 3046.22 C 817.693 3049.73 831.766 3051.32 844.477 3053.19 C 755.211 2950.17 680.431 2835.44 622.211 2712.18 C 604.172 2707.59 591.254 2700.99 574.81 2692.6 C 470.968 2715.1 389.243 2648.92 353.667 2554.53 C 342.257 2524.25 337.23 2498.47 331.993 2466.85 C 467.799 2467.61 552.273 2558.82 582.289 2685.52 C 594.271 2692.47 604.516 2696.41 617.298 2701.67 C 560.024 2578.22 519.96 2447.49 498.227 2313.15 C 483.792 2303.65 473.252 2292.82 461.112 2280.66 C 456.095 2280.44 451.089 2280.03 446.105 2279.42 C 327.969 2264.58 276.236 2151.41 282.327 2042.71 C 283.222 2026.75 284.66 2012.48 286.645 1996.58 C 415.306 2035.33 472.557 2142.92 467.005 2272.81 C 476.936 2283.74 485.497 2291.38 496.515 2301.29 C 473.685 2167.53 474.825 2030.66 488.884 1896.13 C 478.645 1883.55 470.21 1867.82 462.403 1853.47 C 458.623 1852.2 454.885 1850.81 451.194 1849.3 C 338.487 1803.68 319.348 1677.82 356.23 1573.56 C 361.283 1559.28 366.528 1546.25 372.441 1532.29 C 483.876 1601.95 512.111 1726.04 470.011 1846.32 C 476.918 1861.08 482.091 1869.92 490.655 1883.9 C 507.845 1748.53 543.574 1616.16 596.836 1490.53 C 588.828 1473.71 585.408 1460.79 581.057 1442.82 C 576.845 1440.01 572.758 1437.02 568.807 1433.85 C 475.085 1357.84 492.879 1232.26 557.139 1143.14 C 565.689 1131.28 573.878 1120.76 583.153 1109.39 C 673.322 1208.59 661.577 1333.04 589.983 1438.94 C 593.515 1455.21 595.814 1462.87 601.455 1478.57 C 662.905 1344.13 719.413 1246.1 811.881 1129.28 C 807.934 1111.61 807.263 1096.95 806.486 1078.97 C 720.85 965.051 784.754 846.99 886.764 771.745 C 891.786 767.989 896.924 764.391 902.17 760.955 C 959.436 881.32 917.74 999.757 816.441 1080.59 C 816.116 1095.31 817.445 1105.29 819.16 1120.01 C 893.624 1029.31 957.535 966.893 1047.11 892.074 z"/>
<path transform="translate(0,0)" fill="rgb(30,59,140)" d="M 526.964 2270.25 C 490.034 2145.13 521.506 2022.47 639.677 1956.55 C 684.675 2080.79 681.218 2219.87 538.206 2271.07 C 555.691 2243.01 600.414 2150.81 598.763 2119.52 L 597.094 2120.37 C 587.332 2167.48 554.046 2230.45 526.964 2270.25 z"/>
<path transform="translate(0,0)" fill="rgb(30,59,140)" d="M 783.407 2685.16 C 794.221 2693.64 804.435 2701.82 814.747 2710.88 C 904.095 2789.37 946.401 2910.99 861.456 3008.53 C 862.313 2963.06 850.422 2917.21 838.346 2873.77 L 834.961 2878.05 C 845.191 2916.48 851.724 2969.43 851.573 3008.86 C 756.564 2921.24 718.155 2803.16 783.407 2685.16 z"/>
<path transform="translate(0,0)" fill="rgb(24,47,113)" d="M 834.961 2878.05 C 832.584 2868.66 831.954 2866.39 831.447 2856.86 C 834.833 2859.37 836.757 2868.74 838.346 2873.77 L 834.961 2878.05 z"/>
<path transform="translate(0,0)" fill="rgb(30,59,140)" d="M 583.153 1109.39 C 673.322 1208.59 661.577 1333.04 589.983 1438.94 C 583.033 1395.49 582.482 1363.53 583.753 1320.23 L 580.649 1319.32 L 578.903 1315 C 573.606 1354.96 572.899 1403.19 581.057 1442.82 C 576.845 1440.01 572.758 1437.02 568.807 1433.85 C 475.085 1357.84 492.879 1232.26 557.139 1143.14 C 565.689 1131.28 573.878 1120.76 583.153 1109.39 z"/>
<path transform="translate(0,0)" fill="rgb(24,47,113)" d="M 586.639 1262.17 C 587.787 1280.14 584.878 1301.91 583.753 1320.23 L 580.649 1319.32 L 578.903 1315 C 580.696 1296.44 583.482 1280.46 586.639 1262.17 z"/>
<path transform="translate(0,0)" fill="rgb(30,59,140)" d="M 1173.08 3561.96 C 1261.74 3463.55 1389.6 3458.37 1501.19 3521.54 C 1462.65 3534.93 1412.3 3548.26 1371.22 3551.49 C 1375.95 3554.1 1376.11 3554.75 1381.14 3555.88 C 1425.68 3551.75 1462.35 3546.27 1504.39 3530.21 C 1452.76 3623.24 1349.74 3641.22 1255.45 3605.59 C 1224.47 3593.89 1200.6 3579.9 1173.08 3561.96 z"/>
<path transform="translate(0,0)" fill="rgb(24,47,113)" d="M 1381.14 3555.88 C 1371.43 3558.05 1334.98 3557.35 1323.47 3557.13 C 1333.84 3554.52 1359.53 3552.65 1371.22 3551.49 C 1375.95 3554.1 1376.11 3554.75 1381.14 3555.88 z"/>
<path transform="translate(0,0)" fill="rgb(30,59,140)" d="M 1286.96 3227.05 C 1293.28 3227.54 1299.58 3228.21 1305.86 3229.05 C 1433.34 3245.46 1543.79 3317.98 1524.86 3459.98 C 1497.85 3420.41 1455.65 3385.08 1417.45 3356.34 L 1415.97 3359.48 C 1451.15 3387.69 1491.66 3429.5 1517.51 3465.78 C 1385.17 3440.65 1299.27 3363.82 1286.96 3227.05 z"/>
<path transform="translate(0,0)" fill="rgb(30,59,140)" d="M 1415.97 3359.48 C 1410.38 3355.67 1404.63 3352.73 1401.4 3347.03 L 1403.26 3345.64 C 1410.09 3348.37 1412.23 3351.24 1417.45 3356.34 L 1415.97 3359.48 z"/>
<path transform="translate(0,0)" fill="rgb(30,59,140)" d="M 531.026 1862.07 C 531.981 1731.76 595.268 1626.91 726.061 1595.16 C 730.405 1675.44 724.728 1748.35 668.703 1812.74 C 637.131 1849.02 592.409 1867.38 544.651 1869.48 C 542.167 1869.61 539.68 1869.66 537.193 1869.66 C 573.911 1838.85 616.043 1789.8 639.041 1746.95 C 629.519 1756.87 616.567 1774.2 607.243 1785.46 C 582.783 1815 560.782 1837.79 531.026 1862.07 z"/>
<path transform="translate(0,0)" fill="rgb(30,59,140)" d="M 286.645 1996.58 C 415.306 2035.33 472.557 2142.92 467.005 2272.81 C 432.597 2231.64 413.607 2196.58 389.614 2150.03 L 385.925 2150.5 C 410.51 2203.35 422.336 2233.87 461.112 2280.66 C 456.095 2280.44 451.089 2280.03 446.105 2279.42 C 327.969 2264.58 276.236 2151.41 282.327 2042.71 C 283.222 2026.75 284.66 2012.48 286.645 1996.58 z"/>
<path transform="translate(0,0)" fill="rgb(30,59,140)" d="M 385.925 2150.5 C 382.765 2143.8 380.389 2136.45 377.916 2129.44 L 378.285 2130.02 L 378.317 2123.55 L 377.101 2124.65 L 377.144 2123.16 L 378.818 2123.27 C 386.302 2134.48 386.567 2136.98 389.614 2150.03 L 385.925 2150.5 z"/>
<path transform="translate(0,0)" fill="rgb(30,59,140)" d="M 642.573 1466.74 C 678.583 1339.75 768.657 1257.94 903.81 1261.94 C 895.754 1301.32 886.594 1333.6 867.435 1369.21 C 823.649 1450.6 742.355 1500.66 649.468 1474.63 C 693.282 1449.87 743.981 1418.4 775.935 1378.41 C 724.876 1417.86 703.637 1437.02 642.573 1466.74 z"/>
<path transform="translate(0,0)" fill="rgb(30,59,140)" d="M 999.217 2991.89 C 1015.73 2998.43 1030.14 3004.63 1046.01 3012.57 C 1142.23 3060.69 1213.09 3160.64 1168.56 3269.63 C 1166.73 3274.04 1164.77 3278.39 1162.68 3282.68 C 1153.4 3246.28 1108.22 3167.15 1080.47 3138.87 C 1112.95 3193.5 1130.98 3222.88 1153.35 3283.58 C 1036 3226.55 971.619 3122.49 999.217 2991.89 z"/>
<path transform="translate(0,0)" fill="rgb(30,59,140)" d="M 505.428 2906.24 C 636.007 2870.62 741.048 2932.65 805.425 3046.22 C 756.648 3033.39 716.274 3012.52 672.53 2988.92 L 671.183 2992.9 C 699.88 3010.53 770.254 3052.62 802.776 3055.19 C 798.988 3057.47 795.083 3059.55 791.076 3061.43 C 721.748 3093.79 650.765 3078.3 593.303 3030.27 C 552.021 2995.76 527.396 2954.43 505.428 2906.24 z"/>
<path transform="translate(0,0)" fill="rgb(24,47,113)" d="M 671.183 2992.9 C 663.412 2988.13 659.669 2986.44 653.646 2979.81 L 654.473 2978.21 L 653.625 2979.85 L 653.571 2978.37 C 660.664 2979.47 666.426 2984.6 672.53 2988.92 L 671.183 2992.9 z"/>
<path transform="translate(0,0)" fill="rgb(30,59,140)" d="M 861.606 1119.16 C 932.214 1010.35 1039.98 953.024 1168.15 996.093 C 1133.51 1063.51 1084.63 1125.18 1009.55 1148.84 C 965.564 1162.94 917.747 1158.68 876.954 1137.01 C 872.186 1134.47 867.427 1131.54 862.835 1128.68 C 899.631 1120.81 989.51 1081.55 1015.38 1056.2 C 1012.88 1056 1014.08 1055.7 1012.11 1056.93 C 969.232 1083.6 909.836 1106.28 861.606 1119.16 z"/>
<path transform="translate(0,0)" fill="rgb(30,59,140)" d="M 372.441 1532.29 C 483.876 1601.95 512.111 1726.04 470.011 1846.32 C 452.872 1802.8 440.459 1757.56 432.984 1711.39 C 432.427 1707.85 429.231 1680.97 428.51 1680.32 C 429.577 1739.7 439.186 1798.43 462.403 1853.47 C 458.623 1852.2 454.885 1850.81 451.194 1849.3 C 338.487 1803.68 319.348 1677.82 356.23 1573.56 C 361.283 1559.28 366.528 1546.25 372.441 1532.29 z"/>
<path transform="translate(0,0)" fill="rgb(30,59,140)" d="M 806.486 1078.97 C 720.85 965.051 784.754 846.99 886.764 771.745 C 891.786 767.989 896.924 764.391 902.17 760.955 C 959.436 881.32 917.74 999.757 816.441 1080.59 C 817.151 1044.9 822.783 1011.53 830.783 976.918 C 832.532 969.348 843.784 926.465 842.758 921.952 C 835.813 935.701 836.939 939.749 832.426 951.545 C 816.498 993.179 808.803 1034.27 806.486 1078.97 z"/>
<path transform="translate(0,0)" fill="url(#Gradient8)" d="M 331.993 2466.85 C 467.799 2467.61 552.273 2558.82 582.289 2685.52 C 543.908 2662.58 509.462 2636.25 477.728 2604.72 C 471.373 2598.4 463.069 2588.47 455.729 2584.37 C 458.106 2603.74 553.714 2682.03 574.81 2692.6 C 470.968 2715.1 389.243 2648.92 353.667 2554.53 C 342.257 2524.25 337.23 2498.47 331.993 2466.85 z"/>
<path transform="translate(0,0)" fill="rgb(30,59,140)" d="M 438.806 2567.63 C 445.438 2570.02 449.644 2572.57 452.349 2579.21 L 450.476 2579.73 C 445.278 2577.9 442.316 2572.37 438.806 2567.63 z"/>
<path transform="translate(0,0)" fill="url(#Gradient7)" d="M 1047.11 892.074 C 1088.61 755.975 1188.55 700.844 1326.48 730.469 C 1280.39 835.142 1167.22 906.175 1052.92 902.453 C 1082.88 879.212 1113.55 856.897 1144.88 835.538 C 1158.11 826.402 1191.45 804.919 1201.83 794.882 C 1189.5 794.009 1065.29 878.442 1047.11 892.074 z"/>
<path transform="translate(0,0)" fill="url(#Gradient6)" d="M 2000.33 378.523 C 2006.37 390.231 2012.68 401.969 2017.94 414.038 C 2022.44 422.927 2030.71 438.172 2034.07 446.895 C 2039.22 457.169 2045.2 468.45 2049.98 478.78 C 2080.64 483.578 2127.86 488.787 2156.82 494.874 L 2159.45 496.043 C 2156.94 501.911 2137.18 520.782 2132.22 524.015 C 2124.31 532.326 2117.32 539.633 2108.9 547.462 L 2081.24 574.143 C 2085.08 596.491 2089.92 621.66 2092.91 643.944 L 2100.74 686.254 C 2086.74 679.061 2066.83 669.545 2054.02 661.283 C 2038.9 654.676 2015.21 641.547 1999.88 633.627 L 1972.04 647.954 C 1953.85 657.89 1918.01 678.092 1899.85 685.182 L 1918.93 574.512 L 1878 534.826 C 1871.75 528.654 1865.59 522.388 1859.53 516.03 C 1852.83 510.951 1846.24 503.43 1840.34 497.24 L 1840.54 496.284 C 1845.94 492.51 1935.01 480.85 1947.66 480.044 C 1954.39 472.864 1974.17 429.774 1979.52 418.656 L 1988.68 400.149 C 1992.77 391.369 1995.2 386.725 2000.33 378.523 z"/>
<path transform="translate(0,0)" fill="url(#Gradient5)" d="M 1988.68 400.149 C 1992.77 391.369 1995.2 386.725 2000.33 378.523 C 2001.82 424.608 1999.88 471.483 2000.23 517.641 C 2000.3 526.693 2000.11 537.554 1999.15 546.539 C 2001.06 555.024 2000.95 554.622 1999.57 563.275 C 1997.26 575.05 1976.54 634.727 1972.04 647.954 C 1953.85 657.89 1918.01 678.092 1899.85 685.182 L 1918.93 574.512 L 1878 534.826 C 1871.75 528.654 1865.59 522.388 1859.53 516.03 C 1852.83 510.951 1846.24 503.43 1840.34 497.24 L 1840.54 496.284 C 1845.94 492.51 1935.01 480.85 1947.66 480.044 C 1954.39 472.864 1974.17 429.774 1979.52 418.656 L 1988.68 400.149 z"/>
<path transform="translate(0,0)" fill="rgb(30,59,139)" d="M 1840.34 497.24 C 1853.16 499.414 1980.54 540.819 1992.79 547.352 L 1992.29 549.888 C 1970.89 558.482 1956.02 553.968 1935.36 544.998 L 1934.44 549.589 L 1932.29 548.476 C 1914.12 544.354 1897.18 538.553 1878 534.826 C 1871.75 528.654 1865.59 522.388 1859.53 516.03 C 1852.83 510.951 1846.24 503.43 1840.34 497.24 z"/>
<path transform="translate(0,0)" fill="rgb(30,59,140)" d="M 1859.53 516.03 C 1882.05 523.691 1913.64 529.046 1928.24 545.401 C 1928.88 546.122 1931.34 547.803 1932.29 548.476 C 1914.12 544.354 1897.18 538.553 1878 534.826 C 1871.75 528.654 1865.59 522.388 1859.53 516.03 z"/>
<path transform="translate(0,0)" fill="rgb(30,59,140)" d="M 1979.52 418.656 C 1979.89 450.415 1978.25 476.486 1977.68 507.533 L 1975.31 506.734 C 1969.62 494.281 1970.47 474.583 1970.11 460.256 C 1969.66 477.904 1968.59 483.844 1964.84 501.269 L 1964.84 460.236 C 1959.72 469.157 1960.07 472.046 1952.9 480.86 L 1947.66 480.044 C 1954.39 472.864 1974.17 429.774 1979.52 418.656 z"/>
<path transform="translate(0,0)" fill="rgb(30,59,140)" d="M 1988.68 400.149 C 1985.14 416.066 1982.52 508.391 1982.52 508.383 L 1980.08 506.88 L 1977.68 507.533 C 1978.25 476.486 1979.89 450.415 1979.52 418.656 L 1988.68 400.149 z"/>
<path transform="translate(0,0)" fill="url(#Gradient4)" d="M 1999.15 546.539 L 2003.88 548.546 L 2015.22 553.093 C 2031.9 567.724 2076.36 623.514 2092.91 643.944 L 2100.74 686.254 C 2086.74 679.061 2066.83 669.545 2054.02 661.283 C 2038.9 654.676 2015.21 641.547 1999.88 633.627 L 1972.04 647.954 C 1976.54 634.727 1997.26 575.05 1999.57 563.275 C 2000.95 554.622 2001.06 555.024 1999.15 546.539 z"/>
<path transform="translate(0,0)" fill="url(#Gradient3)" d="M 1999.57 563.275 C 2004.63 589.748 2053.58 645.958 2054.02 661.283 C 2038.9 654.676 2015.21 641.547 1999.88 633.627 L 1972.04 647.954 C 1976.54 634.727 1997.26 575.05 1999.57 563.275 z"/>
<path transform="translate(0,0)" fill="rgb(30,59,140)" d="M 2015.22 553.093 L 2016.26 552.982 C 2036.88 550.916 2118.36 516.197 2126.17 520.973 L 2118.22 526.032 L 2120.7 527.308 C 2123.23 526.621 2121.84 527.164 2125.07 524.972 L 2127.81 523.077 L 2132.22 524.015 C 2124.31 532.326 2117.32 539.633 2108.9 547.462 L 2081.24 574.143 C 2085.08 596.491 2089.92 621.66 2092.91 643.944 C 2076.36 623.514 2031.9 567.724 2015.22 553.093 z"/>
<path transform="translate(0,0)" fill="rgb(30,59,140)" d="M 2120.7 527.308 C 2123.23 526.621 2121.84 527.164 2125.07 524.972 L 2127.81 523.077 L 2132.22 524.015 C 2124.31 532.326 2117.32 539.633 2108.9 547.462 L 2081.24 574.143 C 2071.24 569.885 2063.28 569.874 2051.96 563.274 L 2054.54 560.694 C 2052.23 558.909 2045.4 556.943 2042.23 555.847 C 2062.99 545.248 2095.05 539.294 2118.31 528.444 L 2120.7 527.308 z"/>
<path transform="translate(0,0)" fill="rgb(30,59,139)" d="M 2054.54 560.694 C 2072.4 557.479 2093.17 545.648 2108.9 547.462 L 2081.24 574.143 C 2071.24 569.885 2063.28 569.874 2051.96 563.274 L 2054.54 560.694 z"/>
<path transform="translate(0,0)" fill="rgb(30,59,140)" d="M 2156.82 494.874 L 2159.45 496.043 C 2156.94 501.911 2137.18 520.782 2132.22 524.015 L 2127.81 523.077 L 2125.07 524.972 C 2121.84 527.164 2123.23 526.621 2120.7 527.308 L 2118.22 526.032 L 2126.17 520.973 C 2118.36 516.197 2036.88 550.916 2016.26 552.982 L 2015.22 553.093 L 2003.88 548.546 C 2031.86 532.928 2128.64 511.868 2156.82 494.874 z"/>
<path transform="translate(0,0)" fill="rgb(30,59,140)" d="M 2019.38 519.947 C 2015.71 526.06 2012.22 532.907 2006.96 537.53 L 2006.46 535.481 C 2022.74 508.427 2010.14 424.985 2017.94 414.038 C 2022.44 422.927 2030.71 438.172 2034.07 446.895 C 2026.96 456.452 2032.54 464.335 2028.99 472.907 C 2028.81 482.949 2028.67 487.23 2026.88 497.047 L 2025.1 497.235 L 2026.41 497.83 C 2024.31 496.969 2022.22 496.094 2020.14 495.205 C 2017.38 501.268 2019.03 512.429 2019.38 519.947 z"/>
<path transform="translate(0,0)" fill="rgb(30,59,139)" d="M 2028.99 472.907 C 2032.54 464.335 2026.96 456.452 2034.07 446.895 C 2039.22 457.169 2045.2 468.45 2049.98 478.78 C 2045.46 484.766 2040.87 492.18 2034.54 495.761 C 2031.1 491.541 2031.97 480.936 2031.93 474.657 L 2028.99 472.907 z"/>
<path transform="translate(0,0)" fill="rgb(30,59,140)" d="M 636.211 2659.84 C 567.734 2550.99 566.928 2424.91 660.416 2330.8 C 678.921 2356.9 692.756 2377.93 706.406 2407.18 C 748.845 2498.14 737.053 2609.66 644.611 2663.94 C 655.152 2633.8 657.296 2578.82 658.208 2546.29 L 655.611 2544.4 L 652.625 2546.2 C 651.328 2574.73 647.919 2601.89 642.336 2629.86 C 640.395 2639.57 637.437 2650.14 636.211 2659.84 z"/>
<path transform="translate(0,0)" fill="rgb(24,47,113)" d="M 655.202 2498.67 C 657.271 2513.68 658.611 2531.17 658.208 2546.29 L 655.611 2544.4 L 652.625 2546.2 C 652.834 2530.42 654.124 2514.43 655.202 2498.67 z"/>
<path transform="translate(0,0)" fill="rgb(30,59,140)" d="M 2878.82 3334.03 C 2971.27 3241.57 3091.31 3210.4 3207 3281 C 3155.66 3339.65 3096.61 3388.84 3015.15 3394.43 C 2963 3398 2919.4 3379.44 2881.72 3344.1 C 2922.75 3346.21 2961.92 3340.69 3001.69 3331.09 L 2996.59 3327.06 C 2956.12 3332.26 2919.91 3337.17 2878.82 3334.03 z"/>
<path transform="translate(0,0)" fill="rgb(21,41,98)" d="M 2996.59 3327.06 C 3010.51 3324.08 3033.33 3319.76 3047.55 3318.24 C 3031.01 3323.52 3018.56 3327.21 3001.69 3331.09 L 2996.59 3327.06 z"/>
<path transform="translate(0,0)" fill="rgb(30,59,140)" d="M 792.95 3281.04 C 908.963 3209.97 1028.31 3241.96 1121.23 3334 C 1080.17 3337.19 1043.81 3332.25 1003.37 3327.06 L 998.385 3331.16 C 1039.14 3340.71 1076.13 3346.1 1118.2 3344.12 C 1024.79 3430.7 906.788 3397.03 822.844 3313.53 C 812.29 3303.04 802.788 3292.21 792.95 3281.04 z"/>
<path transform="translate(0,0)" fill="rgb(21,41,98)" d="M 950.099 3317.81 C 964.243 3319.38 989.647 3323.95 1003.37 3327.06 L 998.385 3331.16 C 982.22 3327.66 965.989 3322.53 950.099 3317.81 z"/>
<path transform="translate(0,0)" fill="rgb(30,59,140)" d="M 1998.74 3103.92 C 2005.23 3107.04 2015 3130.68 2018.63 3138.51 L 2041.27 3184.01 L 2085.75 3190.4 C 2097.01 3192.06 2118.69 3194.6 2128.98 3197.07 L 2129.47 3200.56 C 2123.58 3206.8 2100.08 3230.79 2094.18 3234.82 C 2085.67 3243.36 2075.51 3254.08 2066.73 3261.99 L 2074.07 3306.53 C 2076.01 3317.53 2080.01 3337.1 2080.33 3347.48 L 2081.23 3349.99 L 2078.69 3351.09 C 2065.33 3346.14 2038.7 3331.13 2025.55 3323.78 L 2000.35 3310.77 L 1951.79 3335.62 C 1941.76 3341.14 1932.7 3346.4 1922.12 3350.87 L 1920.75 3351.32 L 1918.87 3350.02 C 1920.35 3331.37 1929.75 3281.83 1933.62 3263.07 C 1923.13 3250.64 1894.42 3224.14 1881.62 3211.65 C 1878.05 3208.57 1873.21 3203.12 1869.81 3199.51 L 1870.48 3197.5 C 1878.86 3194.62 1885.31 3194.55 1894.1 3193.78 C 1908.38 3190.35 1942.96 3186.14 1958.89 3183.79 L 1989.42 3122.15 L 1998.74 3103.92 z"/>
<path transform="translate(0,0)" fill="url(#Gradient2)" d="M 1998.74 3103.92 C 2005.23 3107.04 2015 3130.68 2018.63 3138.51 L 2041.27 3184.01 L 2085.75 3190.4 C 2097.01 3192.06 2118.69 3194.6 2128.98 3197.07 L 2129.47 3200.56 C 2123.58 3206.8 2100.08 3230.79 2094.18 3234.82 C 2085.67 3243.36 2075.51 3254.08 2066.73 3261.99 L 2074.07 3306.53 C 2060.22 3292.9 2021.68 3248.81 2007.63 3243.9 L 2003.05 3243.46 C 2000.72 3240.99 2001.11 3238.8 2000.15 3234.36 L 1996.88 3236.01 C 1993.34 3230.78 1992.41 3230.12 1987.99 3225.83 C 1982.65 3222.4 1904.45 3196.21 1894.1 3193.78 C 1908.38 3190.35 1942.96 3186.14 1958.89 3183.79 L 1989.42 3122.15 L 1998.74 3103.92 z"/>
<path transform="translate(0,0)" fill="rgb(30,59,140)" d="M 2128.98 3197.07 L 2129.47 3200.56 C 2123.58 3206.8 2100.08 3230.79 2094.18 3234.82 C 2085.67 3243.36 2075.51 3254.08 2066.73 3261.99 L 2074.07 3306.53 C 2060.22 3292.9 2021.68 3248.81 2007.63 3243.9 C 2028.09 3245.28 2041.74 3236.2 2060.65 3228.61 C 2077.15 3221.99 2105.25 3216.46 2117.95 3205.29 C 2106.72 3208.68 2084.31 3219.61 2074.76 3217.32 C 2081.72 3212.37 2114.95 3205.23 2128.98 3197.07 z"/>
<path transform="translate(0,0)" fill="rgb(30,59,139)" d="M 2066.73 3261.99 C 2060.82 3260.1 2041.65 3254.9 2039.22 3250.38 C 2046.86 3244.51 2080.27 3234.15 2090.67 3232 L 2094.18 3234.82 C 2085.67 3243.36 2075.51 3254.08 2066.73 3261.99 z"/>
<path transform="translate(0,0)" fill="rgb(30,59,140)" d="M 1958.89 3183.79 L 1989.42 3122.15 C 1990.18 3150.23 1985.28 3202.01 1987.99 3225.83 C 1982.65 3222.4 1904.45 3196.21 1894.1 3193.78 C 1908.38 3190.35 1942.96 3186.14 1958.89 3183.79 z"/>
<path transform="translate(0,0)" fill="rgb(30,59,140)" d="M 2018.63 3138.51 L 2041.27 3184.01 L 2085.75 3190.4 C 2068.96 3194.31 2048.67 3208.48 2035.16 3218.74 C 2025.45 3226.11 2018.83 3227.49 2007.35 3231.14 C 2027.25 3199.99 2005.71 3154.92 2018.63 3138.51 z"/>
<path transform="translate(0,0)" fill="rgb(30,59,139)" d="M 1998.74 3103.92 C 2002.37 3122.84 1999.49 3208.3 2000.15 3234.36 L 1996.88 3236.01 C 1993.34 3230.78 1992.41 3230.12 1987.99 3225.83 C 1985.28 3202.01 1990.18 3150.23 1989.42 3122.15 L 1998.74 3103.92 z"/>
<path transform="translate(0,0)" fill="url(#Gradient1)" d="M 1881.62 3211.65 C 1901.47 3215.41 1949.64 3238.85 1964.99 3238.83 C 1970.66 3241.07 1972.21 3242.42 1976.76 3246.21 C 1983.45 3247.81 1988.46 3245.59 1995.24 3243.74 L 1996.56 3245.22 C 1999.59 3254.86 1996.4 3259.3 1991.42 3268.76 C 1979.48 3291.4 1964.29 3313.31 1951.79 3335.62 C 1941.76 3341.14 1932.7 3346.4 1922.12 3350.87 L 1920.75 3351.32 L 1918.87 3350.02 C 1920.35 3331.37 1929.75 3281.83 1933.62 3263.07 C 1923.13 3250.64 1894.42 3224.14 1881.62 3211.65 z"/>
<path transform="translate(0,0)" fill="rgb(30,59,140)" d="M 1881.62 3211.65 C 1901.47 3215.41 1949.64 3238.85 1964.99 3238.83 C 1966.48 3244.34 1968.6 3247.44 1971.6 3252.15 C 1967.74 3256.3 1967.27 3255.95 1962.11 3258.94 C 1962.55 3262.12 1962.05 3260.49 1963.88 3263.75 C 1961.64 3268.88 1961.93 3269.42 1957.82 3273.01 L 1956.13 3273.13 C 1957.82 3269.87 1956.99 3271.78 1958.52 3267.25 C 1949.21 3259.15 1940.01 3268.56 1938.35 3279.78 C 1933.74 3275.29 1939.35 3265.61 1941.68 3260.76 C 1936.68 3261.55 1937.97 3260.92 1933.62 3263.07 C 1923.13 3250.64 1894.42 3224.14 1881.62 3211.65 z"/>
<path transform="translate(0,0)" fill="rgb(30,59,139)" d="M 1996.56 3245.22 C 1999.59 3254.86 1996.4 3259.3 1991.42 3268.76 C 1979.48 3291.4 1964.29 3313.31 1951.79 3335.62 C 1941.76 3341.14 1932.7 3346.4 1922.12 3350.87 C 1923.68 3342.03 1986.57 3258.8 1996.56 3245.22 z"/>
<path transform="translate(0,0)" fill="rgb(30,59,139)" d="M 2003.05 3243.46 L 2007.63 3243.9 C 2021.68 3248.81 2060.22 3292.9 2074.07 3306.53 C 2076.01 3317.53 2080.01 3337.1 2080.33 3347.48 C 2074.44 3345.54 2011.62 3255.47 2003.05 3243.46 z"/>
<path transform="translate(0,0)" fill="rgb(30,59,140)" d="M 1869.81 3199.51 L 1870.48 3197.5 C 1878.86 3194.62 1885.31 3194.55 1894.1 3193.78 C 1904.45 3196.21 1982.65 3222.4 1987.99 3225.83 C 1992.41 3230.12 1993.34 3230.78 1996.88 3236.01 C 1983.36 3239.15 1895.2 3202.31 1869.81 3199.51 z"/>
<path transform="translate(0,0)" fill="rgb(30,59,139)" d="M 2000.35 3310.77 C 2000.37 3303.68 1999.53 3293.12 2002.38 3287.09 L 2005.13 3286.31 C 2011.14 3297.31 2028.61 3314.55 2030.09 3320.31 C 2028.1 3322.07 2027.88 3322.55 2025.55 3323.78 L 2000.35 3310.77 z"/>
<path transform="translate(0,0)" fill="rgb(30,59,140)" d="M 1653.1 3057.19 C 1659.58 3059.93 1666.14 3077.44 1669.12 3084.46 L 1689.41 3124.39 L 1728.1 3129.94 C 1736.82 3131.14 1758.36 3133.3 1764.87 3137 C 1746.95 3155.01 1728.83 3172.83 1710.54 3190.47 L 1716.84 3227.17 L 1723.28 3263.67 L 1720.25 3264.85 C 1703.99 3258.43 1671.3 3240.12 1654.46 3231.22 L 1584.92 3267.6 L 1598.54 3190.41 C 1581.25 3173.68 1561.34 3155.22 1545.28 3137.7 L 1545.45 3137 C 1549.47 3133.33 1561.67 3132.81 1568.33 3131.82 L 1619.83 3124.25 L 1645.46 3072.34 L 1653.1 3057.19 z"/>
<path transform="translate(0,0)" fill="rgb(30,59,140)" d="M 1653.1 3057.19 C 1659.58 3059.93 1666.14 3077.44 1669.12 3084.46 C 1662.14 3101.07 1673.75 3149.12 1658.09 3164.39 L 1654.46 3164.22 L 1649.98 3163.47 C 1637.73 3149.02 1646.02 3097.86 1645.52 3074.36 L 1645.46 3072.34 L 1653.1 3057.19 z"/>
<path transform="translate(0,0)" fill="rgb(30,59,139)" d="M 1653.1 3057.19 C 1656.4 3074.74 1654.66 3144.1 1654.46 3164.22 L 1649.98 3163.47 C 1637.73 3149.02 1646.02 3097.86 1645.52 3074.36 L 1645.46 3072.34 L 1653.1 3057.19 z"/>
<path transform="translate(0,0)" fill="rgb(30,59,139)" d="M 1723.28 3263.67 C 1716.26 3258.11 1664.24 3185.98 1662.97 3179.48 C 1672.95 3182.24 1704.64 3217.75 1716.84 3227.17 L 1723.28 3263.67 z"/>
<path transform="translate(0,0)" fill="rgb(30,59,139)" d="M 1728.1 3129.94 C 1736.82 3131.14 1758.36 3133.3 1764.87 3137 C 1737.13 3141.25 1707.2 3159.39 1676.68 3161.52 L 1674.86 3159.88 C 1689.55 3146.36 1712.98 3142.84 1728.1 3129.94 z"/>
<path transform="translate(0,0)" fill="rgb(30,59,140)" d="M 1568.33 3131.82 C 1582.19 3142.4 1631.57 3149.7 1636.77 3157.66 C 1604.47 3165.47 1571.08 3137.88 1545.28 3137.7 L 1545.45 3137 C 1549.47 3133.33 1561.67 3132.81 1568.33 3131.82 z"/>
<path transform="translate(0,0)" fill="rgb(30,59,140)" d="M 2343.19 3059.21 L 2345.37 3057.19 C 2351.02 3062.7 2374.92 3113.33 2380.34 3124.31 L 2457.61 3135.54 L 2401.42 3190.61 C 2403.57 3202.6 2407.75 3222.67 2408.73 3234.13 C 2410.84 3243.56 2411.76 3248.91 2412.76 3258.52 L 2413.67 3262.47 L 2412.04 3264.19 C 2400.87 3261.87 2358.16 3238.11 2345.35 3231.28 L 2276.19 3267.4 C 2280.29 3241.79 2284.97 3215.91 2289.38 3190.32 L 2233.12 3135.67 L 2310.79 3124.23 C 2317.81 3109.82 2324.55 3095.59 2332.57 3081.68 C 2334.58 3075 2339.86 3065.73 2343.19 3059.21 z"/>
<path transform="translate(0,0)" fill="rgb(30,59,139)" d="M 2343.19 3059.21 C 2347.35 3070.07 2345.02 3153.38 2345.2 3171.18 L 2331.04 3151.08 C 2331.06 3128.51 2332.99 3102.68 2332.57 3081.68 C 2334.58 3075 2339.86 3065.73 2343.19 3059.21 z"/>
<path transform="translate(0,0)" fill="rgb(30,59,139)" d="M 2412.76 3258.52 C 2411.91 3259.07 2411.06 3259.62 2410.21 3260.17 C 2396.53 3242.57 2354.95 3187.01 2347.27 3169.24 C 2365.02 3183.38 2393.54 3216.11 2408.73 3234.13 C 2410.84 3243.56 2411.76 3248.91 2412.76 3258.52 z"/>
<path transform="translate(0,0)" fill="rgb(30,59,140)" d="M 2606.35 2953.96 C 2613.52 2959.47 2629.37 2995.15 2634.33 3005.31 L 2693.7 3014.37 L 2650.84 3056.49 C 2654.08 3076.45 2657.68 3096.35 2661.62 3116.19 L 2607.57 3087.67 L 2554.12 3116.03 L 2564.3 3056.27 L 2521.35 3014.61 C 2541.25 3011.22 2561.19 3008.05 2581.16 3005.1 L 2606.35 2953.96 z"/>
<path transform="translate(0,0)" fill="rgb(30,59,140)" d="M 1391.56 2952.72 C 1397.28 2958.71 1414.5 2995.86 1419.08 3005.29 C 1438.92 3008.21 1458.75 3011.25 1478.55 3014.4 L 1435.54 3056.56 L 1446.02 3115.87 L 1393.45 3088.48 C 1386.57 3089.37 1347.84 3111.09 1338.69 3116.08 C 1342.62 3096.35 1345.67 3075.91 1348.9 3056.02 L 1306.26 3014.58 C 1325.38 3011.06 1346.64 3008.16 1366 3004.95 L 1391.56 2952.72 z"/>
</svg>